<?xml version="1.0" encoding="utf-8" standalone="no"?>
<!DOCTYPE svg PUBLIC "-//W3C//DTD SVG 1.1//EN"
  "http://www.w3.org/Graphics/SVG/1.1/DTD/svg11.dtd">
<svg xmlns:xlink="http://www.w3.org/1999/xlink" width="648pt" height="432pt" viewBox="0 0 648 432" xmlns="http://www.w3.org/2000/svg" version="1.1">
 <metadata>
  <rdf:RDF xmlns:dc="http://purl.org/dc/elements/1.1/" xmlns:cc="http://creativecommons.org/ns#" xmlns:rdf="http://www.w3.org/1999/02/22-rdf-syntax-ns#">
   <cc:Work>
    <dc:type rdf:resource="http://purl.org/dc/dcmitype/StillImage"/>
    <dc:date>2025-05-11T13:30:28.890403</dc:date>
    <dc:format>image/svg+xml</dc:format>
    <dc:creator>
     <cc:Agent>
      <dc:title>Matplotlib v3.10.3, https://matplotlib.org/</dc:title>
     </cc:Agent>
    </dc:creator>
   </cc:Work>
  </rdf:RDF>
 </metadata>
 <defs>
  <style type="text/css">*{stroke-linejoin: round; stroke-linecap: butt}</style>
 </defs>
 <g id="figure_1">
  <g id="patch_1">
   <path d="M 0 432 
L 648 432 
L 648 0 
L 0 0 
z
" style="fill: #ffffff"/>
  </g>
  <g id="axes_1">
   <g id="patch_2">
    <path d="M 81 384.48 
L 583.2 384.48 
L 583.2 51.84 
L 81 51.84 
z
" style="fill: #ffffff"/>
   </g>
   <g id="matplotlib.axis_1">
    <g id="xtick_1">
     <g id="line2d_1">
      <defs>
       <path id="mc24d965b83" d="M 0 0 
L 0 3.5 
" style="stroke: #000000; stroke-width: 0.8"/>
      </defs>
      <g>
       <use xlink:href="#mc24d965b83" x="103.827273" y="384.48" style="stroke: #000000; stroke-width: 0.8"/>
      </g>
     </g>
     <g id="text_1">
      <!-- 0 -->
      <g transform="translate(98.737273 403.6375) scale(0.16 -0.16)">
       <defs>
        <path id="DejaVuSans-30" d="M 2034 4250 
Q 1547 4250 1301 3770 
Q 1056 3291 1056 2328 
Q 1056 1369 1301 889 
Q 1547 409 2034 409 
Q 2525 409 2770 889 
Q 3016 1369 3016 2328 
Q 3016 3291 2770 3770 
Q 2525 4250 2034 4250 
z
M 2034 4750 
Q 2819 4750 3233 4129 
Q 3647 3509 3647 2328 
Q 3647 1150 3233 529 
Q 2819 -91 2034 -91 
Q 1250 -91 836 529 
Q 422 1150 422 2328 
Q 422 3509 836 4129 
Q 1250 4750 2034 4750 
z
" transform="scale(0.015625)"/>
       </defs>
       <use xlink:href="#DejaVuSans-30"/>
      </g>
     </g>
    </g>
    <g id="xtick_2">
     <g id="line2d_2">
      <g>
       <use xlink:href="#mc24d965b83" x="161.182229" y="384.48" style="stroke: #000000; stroke-width: 0.8"/>
      </g>
     </g>
     <g id="text_2">
      <!-- 25 -->
      <g transform="translate(151.002229 403.6375) scale(0.16 -0.16)">
       <defs>
        <path id="DejaVuSans-32" d="M 1228 531 
L 3431 531 
L 3431 0 
L 469 0 
L 469 531 
Q 828 903 1448 1529 
Q 2069 2156 2228 2338 
Q 2531 2678 2651 2914 
Q 2772 3150 2772 3378 
Q 2772 3750 2511 3984 
Q 2250 4219 1831 4219 
Q 1534 4219 1204 4116 
Q 875 4013 500 3803 
L 500 4441 
Q 881 4594 1212 4672 
Q 1544 4750 1819 4750 
Q 2544 4750 2975 4387 
Q 3406 4025 3406 3419 
Q 3406 3131 3298 2873 
Q 3191 2616 2906 2266 
Q 2828 2175 2409 1742 
Q 1991 1309 1228 531 
z
" transform="scale(0.015625)"/>
        <path id="DejaVuSans-35" d="M 691 4666 
L 3169 4666 
L 3169 4134 
L 1269 4134 
L 1269 2991 
Q 1406 3038 1543 3061 
Q 1681 3084 1819 3084 
Q 2600 3084 3056 2656 
Q 3513 2228 3513 1497 
Q 3513 744 3044 326 
Q 2575 -91 1722 -91 
Q 1428 -91 1123 -41 
Q 819 9 494 109 
L 494 744 
Q 775 591 1075 516 
Q 1375 441 1709 441 
Q 2250 441 2565 725 
Q 2881 1009 2881 1497 
Q 2881 1984 2565 2268 
Q 2250 2553 1709 2553 
Q 1456 2553 1204 2497 
Q 953 2441 691 2322 
L 691 4666 
z
" transform="scale(0.015625)"/>
       </defs>
       <use xlink:href="#DejaVuSans-32"/>
       <use xlink:href="#DejaVuSans-35" transform="translate(63.623047 0)"/>
      </g>
     </g>
    </g>
    <g id="xtick_3">
     <g id="line2d_3">
      <g>
       <use xlink:href="#mc24d965b83" x="218.537186" y="384.48" style="stroke: #000000; stroke-width: 0.8"/>
      </g>
     </g>
     <g id="text_3">
      <!-- 50 -->
      <g transform="translate(208.357186 403.6375) scale(0.16 -0.16)">
       <use xlink:href="#DejaVuSans-35"/>
       <use xlink:href="#DejaVuSans-30" transform="translate(63.623047 0)"/>
      </g>
     </g>
    </g>
    <g id="xtick_4">
     <g id="line2d_4">
      <g>
       <use xlink:href="#mc24d965b83" x="275.892143" y="384.48" style="stroke: #000000; stroke-width: 0.8"/>
      </g>
     </g>
     <g id="text_4">
      <!-- 75 -->
      <g transform="translate(265.712143 403.6375) scale(0.16 -0.16)">
       <defs>
        <path id="DejaVuSans-37" d="M 525 4666 
L 3525 4666 
L 3525 4397 
L 1831 0 
L 1172 0 
L 2766 4134 
L 525 4134 
L 525 4666 
z
" transform="scale(0.015625)"/>
       </defs>
       <use xlink:href="#DejaVuSans-37"/>
       <use xlink:href="#DejaVuSans-35" transform="translate(63.623047 0)"/>
      </g>
     </g>
    </g>
    <g id="xtick_5">
     <g id="line2d_5">
      <g>
       <use xlink:href="#mc24d965b83" x="333.247099" y="384.48" style="stroke: #000000; stroke-width: 0.8"/>
      </g>
     </g>
     <g id="text_5">
      <!-- 100 -->
      <g transform="translate(317.977099 403.6375) scale(0.16 -0.16)">
       <defs>
        <path id="DejaVuSans-31" d="M 794 531 
L 1825 531 
L 1825 4091 
L 703 3866 
L 703 4441 
L 1819 4666 
L 2450 4666 
L 2450 531 
L 3481 531 
L 3481 0 
L 794 0 
L 794 531 
z
" transform="scale(0.015625)"/>
       </defs>
       <use xlink:href="#DejaVuSans-31"/>
       <use xlink:href="#DejaVuSans-30" transform="translate(63.623047 0)"/>
       <use xlink:href="#DejaVuSans-30" transform="translate(127.246094 0)"/>
      </g>
     </g>
    </g>
    <g id="xtick_6">
     <g id="line2d_6">
      <g>
       <use xlink:href="#mc24d965b83" x="390.602056" y="384.48" style="stroke: #000000; stroke-width: 0.8"/>
      </g>
     </g>
     <g id="text_6">
      <!-- 125 -->
      <g transform="translate(375.332056 403.6375) scale(0.16 -0.16)">
       <use xlink:href="#DejaVuSans-31"/>
       <use xlink:href="#DejaVuSans-32" transform="translate(63.623047 0)"/>
       <use xlink:href="#DejaVuSans-35" transform="translate(127.246094 0)"/>
      </g>
     </g>
    </g>
    <g id="xtick_7">
     <g id="line2d_7">
      <g>
       <use xlink:href="#mc24d965b83" x="447.957012" y="384.48" style="stroke: #000000; stroke-width: 0.8"/>
      </g>
     </g>
     <g id="text_7">
      <!-- 150 -->
      <g transform="translate(432.687012 403.6375) scale(0.16 -0.16)">
       <use xlink:href="#DejaVuSans-31"/>
       <use xlink:href="#DejaVuSans-35" transform="translate(63.623047 0)"/>
       <use xlink:href="#DejaVuSans-30" transform="translate(127.246094 0)"/>
      </g>
     </g>
    </g>
    <g id="xtick_8">
     <g id="line2d_8">
      <g>
       <use xlink:href="#mc24d965b83" x="505.311969" y="384.48" style="stroke: #000000; stroke-width: 0.8"/>
      </g>
     </g>
     <g id="text_8">
      <!-- 175 -->
      <g transform="translate(490.041969 403.6375) scale(0.16 -0.16)">
       <use xlink:href="#DejaVuSans-31"/>
       <use xlink:href="#DejaVuSans-37" transform="translate(63.623047 0)"/>
       <use xlink:href="#DejaVuSans-35" transform="translate(127.246094 0)"/>
      </g>
     </g>
    </g>
    <g id="xtick_9">
     <g id="line2d_9">
      <g>
       <use xlink:href="#mc24d965b83" x="562.666926" y="384.48" style="stroke: #000000; stroke-width: 0.8"/>
      </g>
     </g>
     <g id="text_9">
      <!-- 200 -->
      <g transform="translate(547.396926 403.6375) scale(0.16 -0.16)">
       <use xlink:href="#DejaVuSans-32"/>
       <use xlink:href="#DejaVuSans-30" transform="translate(63.623047 0)"/>
       <use xlink:href="#DejaVuSans-30" transform="translate(127.246094 0)"/>
      </g>
     </g>
    </g>
    <g id="text_10">
     <!-- Number -->
     <g transform="translate(299.9625 423.1225) scale(0.16 -0.16)">
      <defs>
       <path id="DejaVuSans-4e" d="M 628 4666 
L 1478 4666 
L 3547 763 
L 3547 4666 
L 4159 4666 
L 4159 0 
L 3309 0 
L 1241 3903 
L 1241 0 
L 628 0 
L 628 4666 
z
" transform="scale(0.015625)"/>
       <path id="DejaVuSans-75" d="M 544 1381 
L 544 3500 
L 1119 3500 
L 1119 1403 
Q 1119 906 1312 657 
Q 1506 409 1894 409 
Q 2359 409 2629 706 
Q 2900 1003 2900 1516 
L 2900 3500 
L 3475 3500 
L 3475 0 
L 2900 0 
L 2900 538 
Q 2691 219 2414 64 
Q 2138 -91 1772 -91 
Q 1169 -91 856 284 
Q 544 659 544 1381 
z
M 1991 3584 
L 1991 3584 
z
" transform="scale(0.015625)"/>
       <path id="DejaVuSans-6d" d="M 3328 2828 
Q 3544 3216 3844 3400 
Q 4144 3584 4550 3584 
Q 5097 3584 5394 3201 
Q 5691 2819 5691 2113 
L 5691 0 
L 5113 0 
L 5113 2094 
Q 5113 2597 4934 2840 
Q 4756 3084 4391 3084 
Q 3944 3084 3684 2787 
Q 3425 2491 3425 1978 
L 3425 0 
L 2847 0 
L 2847 2094 
Q 2847 2600 2669 2842 
Q 2491 3084 2119 3084 
Q 1678 3084 1418 2786 
Q 1159 2488 1159 1978 
L 1159 0 
L 581 0 
L 581 3500 
L 1159 3500 
L 1159 2956 
Q 1356 3278 1631 3431 
Q 1906 3584 2284 3584 
Q 2666 3584 2933 3390 
Q 3200 3197 3328 2828 
z
" transform="scale(0.015625)"/>
       <path id="DejaVuSans-62" d="M 3116 1747 
Q 3116 2381 2855 2742 
Q 2594 3103 2138 3103 
Q 1681 3103 1420 2742 
Q 1159 2381 1159 1747 
Q 1159 1113 1420 752 
Q 1681 391 2138 391 
Q 2594 391 2855 752 
Q 3116 1113 3116 1747 
z
M 1159 2969 
Q 1341 3281 1617 3432 
Q 1894 3584 2278 3584 
Q 2916 3584 3314 3078 
Q 3713 2572 3713 1747 
Q 3713 922 3314 415 
Q 2916 -91 2278 -91 
Q 1894 -91 1617 61 
Q 1341 213 1159 525 
L 1159 0 
L 581 0 
L 581 4863 
L 1159 4863 
L 1159 2969 
z
" transform="scale(0.015625)"/>
       <path id="DejaVuSans-65" d="M 3597 1894 
L 3597 1613 
L 953 1613 
Q 991 1019 1311 708 
Q 1631 397 2203 397 
Q 2534 397 2845 478 
Q 3156 559 3463 722 
L 3463 178 
Q 3153 47 2828 -22 
Q 2503 -91 2169 -91 
Q 1331 -91 842 396 
Q 353 884 353 1716 
Q 353 2575 817 3079 
Q 1281 3584 2069 3584 
Q 2775 3584 3186 3129 
Q 3597 2675 3597 1894 
z
M 3022 2063 
Q 3016 2534 2758 2815 
Q 2500 3097 2075 3097 
Q 1594 3097 1305 2825 
Q 1016 2553 972 2059 
L 3022 2063 
z
" transform="scale(0.015625)"/>
       <path id="DejaVuSans-72" d="M 2631 2963 
Q 2534 3019 2420 3045 
Q 2306 3072 2169 3072 
Q 1681 3072 1420 2755 
Q 1159 2438 1159 1844 
L 1159 0 
L 581 0 
L 581 3500 
L 1159 3500 
L 1159 2956 
Q 1341 3275 1631 3429 
Q 1922 3584 2338 3584 
Q 2397 3584 2469 3576 
Q 2541 3569 2628 3553 
L 2631 2963 
z
" transform="scale(0.015625)"/>
      </defs>
      <use xlink:href="#DejaVuSans-4e"/>
      <use xlink:href="#DejaVuSans-75" transform="translate(74.804688 0)"/>
      <use xlink:href="#DejaVuSans-6d" transform="translate(138.183594 0)"/>
      <use xlink:href="#DejaVuSans-62" transform="translate(235.595703 0)"/>
      <use xlink:href="#DejaVuSans-65" transform="translate(299.072266 0)"/>
      <use xlink:href="#DejaVuSans-72" transform="translate(360.595703 0)"/>
     </g>
    </g>
   </g>
   <g id="matplotlib.axis_2">
    <g id="ytick_1">
     <g id="line2d_10">
      <defs>
       <path id="m4872091859" d="M 0 0 
L -3.5 0 
" style="stroke: #000000; stroke-width: 0.8"/>
      </defs>
      <g>
       <use xlink:href="#m4872091859" x="81" y="287.922862" style="stroke: #000000; stroke-width: 0.8"/>
      </g>
     </g>
     <g id="text_11">
      <!-- $\mathdefault{10^{-2}}$ -->
      <g transform="translate(36.4 294.001612) scale(0.16 -0.16)">
       <defs>
        <path id="DejaVuSans-2212" d="M 678 2272 
L 4684 2272 
L 4684 1741 
L 678 1741 
L 678 2272 
z
" transform="scale(0.015625)"/>
       </defs>
       <use xlink:href="#DejaVuSans-31" transform="translate(0 0.765625)"/>
       <use xlink:href="#DejaVuSans-30" transform="translate(63.623047 0.765625)"/>
       <use xlink:href="#DejaVuSans-2212" transform="translate(128.203125 39.046875) scale(0.7)"/>
       <use xlink:href="#DejaVuSans-32" transform="translate(186.855469 39.046875) scale(0.7)"/>
      </g>
     </g>
    </g>
    <g id="ytick_2">
     <g id="line2d_11">
      <g>
       <use xlink:href="#m4872091859" x="81" y="177.441431" style="stroke: #000000; stroke-width: 0.8"/>
      </g>
     </g>
     <g id="text_12">
      <!-- $\mathdefault{10^{-1}}$ -->
      <g transform="translate(36.4 183.520181) scale(0.16 -0.16)">
       <use xlink:href="#DejaVuSans-31" transform="translate(0 0.684375)"/>
       <use xlink:href="#DejaVuSans-30" transform="translate(63.623047 0.684375)"/>
       <use xlink:href="#DejaVuSans-2212" transform="translate(128.203125 38.965625) scale(0.7)"/>
       <use xlink:href="#DejaVuSans-31" transform="translate(186.855469 38.965625) scale(0.7)"/>
      </g>
     </g>
    </g>
    <g id="ytick_3">
     <g id="line2d_12">
      <g>
       <use xlink:href="#m4872091859" x="81" y="66.96" style="stroke: #000000; stroke-width: 0.8"/>
      </g>
     </g>
     <g id="text_13">
      <!-- $\mathdefault{10^{0}}$ -->
      <g transform="translate(45.84 73.03875) scale(0.16 -0.16)">
       <use xlink:href="#DejaVuSans-31" transform="translate(0 0.765625)"/>
       <use xlink:href="#DejaVuSans-30" transform="translate(63.623047 0.765625)"/>
       <use xlink:href="#DejaVuSans-30" transform="translate(128.203125 39.046875) scale(0.7)"/>
      </g>
     </g>
    </g>
    <g id="ytick_4">
     <g id="line2d_13">
      <defs>
       <path id="m61d0f307ae" d="M 0 0 
L -2 0 
" style="stroke: #000000; stroke-width: 0.6"/>
      </defs>
      <g>
       <use xlink:href="#m61d0f307ae" x="81" y="365.146068" style="stroke: #000000; stroke-width: 0.6"/>
      </g>
     </g>
    </g>
    <g id="ytick_5">
     <g id="line2d_14">
      <g>
       <use xlink:href="#m61d0f307ae" x="81" y="345.691254" style="stroke: #000000; stroke-width: 0.6"/>
      </g>
     </g>
    </g>
    <g id="ytick_6">
     <g id="line2d_15">
      <g>
       <use xlink:href="#m61d0f307ae" x="81" y="331.887843" style="stroke: #000000; stroke-width: 0.6"/>
      </g>
     </g>
    </g>
    <g id="ytick_7">
     <g id="line2d_16">
      <g>
       <use xlink:href="#m61d0f307ae" x="81" y="321.181086" style="stroke: #000000; stroke-width: 0.6"/>
      </g>
     </g>
    </g>
    <g id="ytick_8">
     <g id="line2d_17">
      <g>
       <use xlink:href="#m61d0f307ae" x="81" y="312.433029" style="stroke: #000000; stroke-width: 0.6"/>
      </g>
     </g>
    </g>
    <g id="ytick_9">
     <g id="line2d_18">
      <g>
       <use xlink:href="#m61d0f307ae" x="81" y="305.036652" style="stroke: #000000; stroke-width: 0.6"/>
      </g>
     </g>
    </g>
    <g id="ytick_10">
     <g id="line2d_19">
      <g>
       <use xlink:href="#m61d0f307ae" x="81" y="298.629619" style="stroke: #000000; stroke-width: 0.6"/>
      </g>
     </g>
    </g>
    <g id="ytick_11">
     <g id="line2d_20">
      <g>
       <use xlink:href="#m61d0f307ae" x="81" y="292.978215" style="stroke: #000000; stroke-width: 0.6"/>
      </g>
     </g>
    </g>
    <g id="ytick_12">
     <g id="line2d_21">
      <g>
       <use xlink:href="#m61d0f307ae" x="81" y="254.664637" style="stroke: #000000; stroke-width: 0.6"/>
      </g>
     </g>
    </g>
    <g id="ytick_13">
     <g id="line2d_22">
      <g>
       <use xlink:href="#m61d0f307ae" x="81" y="235.209823" style="stroke: #000000; stroke-width: 0.6"/>
      </g>
     </g>
    </g>
    <g id="ytick_14">
     <g id="line2d_23">
      <g>
       <use xlink:href="#m61d0f307ae" x="81" y="221.406412" style="stroke: #000000; stroke-width: 0.6"/>
      </g>
     </g>
    </g>
    <g id="ytick_15">
     <g id="line2d_24">
      <g>
       <use xlink:href="#m61d0f307ae" x="81" y="210.699656" style="stroke: #000000; stroke-width: 0.6"/>
      </g>
     </g>
    </g>
    <g id="ytick_16">
     <g id="line2d_25">
      <g>
       <use xlink:href="#m61d0f307ae" x="81" y="201.951598" style="stroke: #000000; stroke-width: 0.6"/>
      </g>
     </g>
    </g>
    <g id="ytick_17">
     <g id="line2d_26">
      <g>
       <use xlink:href="#m61d0f307ae" x="81" y="194.555221" style="stroke: #000000; stroke-width: 0.6"/>
      </g>
     </g>
    </g>
    <g id="ytick_18">
     <g id="line2d_27">
      <g>
       <use xlink:href="#m61d0f307ae" x="81" y="188.148188" style="stroke: #000000; stroke-width: 0.6"/>
      </g>
     </g>
    </g>
    <g id="ytick_19">
     <g id="line2d_28">
      <g>
       <use xlink:href="#m61d0f307ae" x="81" y="182.496784" style="stroke: #000000; stroke-width: 0.6"/>
      </g>
     </g>
    </g>
    <g id="ytick_20">
     <g id="line2d_29">
      <g>
       <use xlink:href="#m61d0f307ae" x="81" y="144.183206" style="stroke: #000000; stroke-width: 0.6"/>
      </g>
     </g>
    </g>
    <g id="ytick_21">
     <g id="line2d_30">
      <g>
       <use xlink:href="#m61d0f307ae" x="81" y="124.728392" style="stroke: #000000; stroke-width: 0.6"/>
      </g>
     </g>
    </g>
    <g id="ytick_22">
     <g id="line2d_31">
      <g>
       <use xlink:href="#m61d0f307ae" x="81" y="110.924982" style="stroke: #000000; stroke-width: 0.6"/>
      </g>
     </g>
    </g>
    <g id="ytick_23">
     <g id="line2d_32">
      <g>
       <use xlink:href="#m61d0f307ae" x="81" y="100.218225" style="stroke: #000000; stroke-width: 0.6"/>
      </g>
     </g>
    </g>
    <g id="ytick_24">
     <g id="line2d_33">
      <g>
       <use xlink:href="#m61d0f307ae" x="81" y="91.470167" style="stroke: #000000; stroke-width: 0.6"/>
      </g>
     </g>
    </g>
    <g id="ytick_25">
     <g id="line2d_34">
      <g>
       <use xlink:href="#m61d0f307ae" x="81" y="84.07379" style="stroke: #000000; stroke-width: 0.6"/>
      </g>
     </g>
    </g>
    <g id="ytick_26">
     <g id="line2d_35">
      <g>
       <use xlink:href="#m61d0f307ae" x="81" y="77.666757" style="stroke: #000000; stroke-width: 0.6"/>
      </g>
     </g>
    </g>
    <g id="ytick_27">
     <g id="line2d_36">
      <g>
       <use xlink:href="#m61d0f307ae" x="81" y="72.015353" style="stroke: #000000; stroke-width: 0.6"/>
      </g>
     </g>
    </g>
    <g id="text_14">
     <!-- Values -->
     <g transform="translate(29.0725 244.2975) rotate(-90) scale(0.16 -0.16)">
      <defs>
       <path id="DejaVuSans-56" d="M 1831 0 
L 50 4666 
L 709 4666 
L 2188 738 
L 3669 4666 
L 4325 4666 
L 2547 0 
L 1831 0 
z
" transform="scale(0.015625)"/>
       <path id="DejaVuSans-61" d="M 2194 1759 
Q 1497 1759 1228 1600 
Q 959 1441 959 1056 
Q 959 750 1161 570 
Q 1363 391 1709 391 
Q 2188 391 2477 730 
Q 2766 1069 2766 1631 
L 2766 1759 
L 2194 1759 
z
M 3341 1997 
L 3341 0 
L 2766 0 
L 2766 531 
Q 2569 213 2275 61 
Q 1981 -91 1556 -91 
Q 1019 -91 701 211 
Q 384 513 384 1019 
Q 384 1609 779 1909 
Q 1175 2209 1959 2209 
L 2766 2209 
L 2766 2266 
Q 2766 2663 2505 2880 
Q 2244 3097 1772 3097 
Q 1472 3097 1187 3025 
Q 903 2953 641 2809 
L 641 3341 
Q 956 3463 1253 3523 
Q 1550 3584 1831 3584 
Q 2591 3584 2966 3190 
Q 3341 2797 3341 1997 
z
" transform="scale(0.015625)"/>
       <path id="DejaVuSans-6c" d="M 603 4863 
L 1178 4863 
L 1178 0 
L 603 0 
L 603 4863 
z
" transform="scale(0.015625)"/>
       <path id="DejaVuSans-73" d="M 2834 3397 
L 2834 2853 
Q 2591 2978 2328 3040 
Q 2066 3103 1784 3103 
Q 1356 3103 1142 2972 
Q 928 2841 928 2578 
Q 928 2378 1081 2264 
Q 1234 2150 1697 2047 
L 1894 2003 
Q 2506 1872 2764 1633 
Q 3022 1394 3022 966 
Q 3022 478 2636 193 
Q 2250 -91 1575 -91 
Q 1294 -91 989 -36 
Q 684 19 347 128 
L 347 722 
Q 666 556 975 473 
Q 1284 391 1588 391 
Q 1994 391 2212 530 
Q 2431 669 2431 922 
Q 2431 1156 2273 1281 
Q 2116 1406 1581 1522 
L 1381 1569 
Q 847 1681 609 1914 
Q 372 2147 372 2553 
Q 372 3047 722 3315 
Q 1072 3584 1716 3584 
Q 2034 3584 2315 3537 
Q 2597 3491 2834 3397 
z
" transform="scale(0.015625)"/>
      </defs>
      <use xlink:href="#DejaVuSans-56"/>
      <use xlink:href="#DejaVuSans-61" transform="translate(60.658203 0)"/>
      <use xlink:href="#DejaVuSans-6c" transform="translate(121.9375 0)"/>
      <use xlink:href="#DejaVuSans-75" transform="translate(149.720703 0)"/>
      <use xlink:href="#DejaVuSans-65" transform="translate(213.099609 0)"/>
      <use xlink:href="#DejaVuSans-73" transform="translate(274.623047 0)"/>
     </g>
    </g>
   </g>
   <g id="line2d_37">
    <path d="M 103.827273 66.96 
L 106.121471 69.670854 
L 108.415669 70.616905 
L 113.004066 71.370503 
L 115.298264 71.670247 
L 117.592462 72.625184 
L 124.475057 73.411573 
L 126.769255 73.754717 
L 131.357652 74.239517 
L 140.534445 75.278027 
L 145.122841 75.590335 
L 147.41704 75.842625 
L 149.711238 76.232694 
L 168.064824 77.765736 
L 193.301005 79.599778 
L 195.595203 80.025829 
L 197.889402 80.193737 
L 200.1836 80.222422 
L 202.477798 80.413752 
L 204.771996 80.798771 
L 220.831384 82.03214 
L 223.125582 82.29015 
L 227.713979 82.451648 
L 230.008177 82.747743 
L 232.302376 82.921424 
L 234.596574 82.982313 
L 236.890772 83.293757 
L 241.479169 83.450627 
L 243.773367 83.740852 
L 248.361763 84.077467 
L 250.655962 84.410083 
L 262.126953 85.094437 
L 269.009548 86.129332 
L 271.303746 86.24224 
L 275.892143 86.895473 
L 278.186341 87.079 
L 280.480539 87.505844 
L 287.363134 88.221809 
L 289.657332 88.902453 
L 294.245729 89.718141 
L 303.422522 91.555877 
L 305.71672 93.063969 
L 308.010918 93.96345 
L 310.305116 94.185293 
L 312.599315 95.60973 
L 314.893513 98.305746 
L 317.187711 100.048797 
L 319.48191 104.053033 
L 324.070306 106.188802 
L 326.364504 107.09411 
L 328.658703 109.562088 
L 330.952901 110.50302 
L 333.247099 112.035051 
L 335.541297 113.904942 
L 337.835496 115.133776 
L 340.129694 116.6437 
L 342.423892 118.737745 
L 344.71809 121.562815 
L 347.012289 125.987588 
L 349.306487 129.774371 
L 351.600685 134.159094 
L 353.894884 137.914694 
L 358.48328 143.236308 
L 360.777478 147.570709 
L 363.071677 150.363438 
L 367.660073 154.69104 
L 369.954271 159.601262 
L 372.24847 163.595175 
L 374.542668 165.689859 
L 376.836866 171.428652 
L 379.131064 176.418091 
L 381.425263 178.598439 
L 383.719461 181.23409 
L 386.013659 187.460496 
L 388.307857 190.762817 
L 390.602056 192.685428 
L 392.896254 194.372118 
L 395.190452 198.241137 
L 397.484651 200.729929 
L 399.778849 202.442725 
L 402.073047 215.129624 
L 404.367245 217.007944 
L 406.661444 238.78419 
L 408.955642 258.613652 
L 411.24984 264.124021 
L 413.544038 272.881602 
L 415.838237 276.754769 
L 420.426633 286.939515 
L 422.720831 293.823675 
L 425.01503 294.493474 
L 427.309228 295.914677 
L 429.603426 297.562557 
L 431.897624 298.740506 
L 436.486021 299.92093 
L 438.780219 300.499347 
L 445.662814 301.591197 
L 452.545409 302.528108 
L 457.133805 303.410833 
L 461.722202 303.820471 
L 464.0164 303.973287 
L 466.310598 304.308504 
L 468.604797 304.813172 
L 475.487392 305.257014 
L 477.78159 305.745253 
L 480.075788 305.895153 
L 484.664185 306.560744 
L 486.958383 306.657442 
L 493.840978 307.707657 
L 505.311969 308.709123 
L 507.606167 308.987596 
L 512.194564 309.309707 
L 514.488762 309.696977 
L 521.371357 310.376145 
L 525.959753 310.54166 
L 528.253952 310.887285 
L 537.430745 311.691252 
L 539.724943 312.029869 
L 544.313339 312.35073 
L 546.607538 312.599211 
L 551.195934 312.74629 
L 553.490132 313.105451 
L 558.078529 313.479951 
L 560.372727 313.737828 
L 560.372727 313.737828 
" clip-path="url(#pcb9288b0ae)" style="fill: none; stroke-dasharray: 5.55,2.4; stroke-dashoffset: 0; stroke: #ff0000; stroke-width: 1.5"/>
   </g>
   <g id="line2d_38">
    <path d="M 103.827273 66.96 
L 106.121471 69.685896 
L 108.415669 70.660183 
L 110.709868 71.048652 
L 113.004066 71.436429 
L 115.298264 71.737045 
L 117.592462 72.747314 
L 119.886661 72.956715 
L 122.180859 73.277182 
L 124.475057 73.488466 
L 126.769255 73.867577 
L 129.063454 74.173639 
L 131.357652 74.499116 
L 133.65185 74.666174 
L 135.946048 74.885458 
L 138.240247 75.214495 
L 140.534445 75.440274 
L 142.828643 75.554626 
L 145.122841 75.793006 
L 147.41704 76.034244 
L 149.711238 76.523586 
L 152.005436 76.62792 
L 154.299635 76.880354 
L 156.593833 77.043041 
L 158.888031 77.132565 
L 161.182229 77.71526 
L 163.476428 77.928401 
L 165.770626 78.008272 
L 168.064824 78.288951 
L 170.359022 78.375619 
L 172.653221 78.546408 
L 174.947419 78.710026 
L 177.241617 78.770078 
L 179.535815 78.987254 
L 181.830014 79.101358 
L 184.124212 79.394589 
L 186.41841 79.584596 
L 188.712608 79.802224 
L 191.006807 79.921044 
L 193.301005 80.100548 
L 195.595203 80.354002 
L 197.889402 80.57112 
L 200.1836 80.675272 
L 202.477798 80.900842 
L 204.771996 81.109768 
L 207.066195 81.416364 
L 209.360393 81.567227 
L 211.654591 81.785501 
L 213.948789 81.867572 
L 216.242988 82.172905 
L 218.537186 82.398684 
L 220.831384 82.542604 
L 223.125582 82.82412 
L 225.419781 82.941125 
L 227.713979 83.06348 
L 230.008177 83.279024 
L 232.302376 83.549654 
L 234.596574 83.68687 
L 236.890772 83.937428 
L 239.18497 84.239298 
L 241.479169 84.320459 
L 243.773367 84.548202 
L 246.067565 84.842206 
L 248.361763 85.051772 
L 250.655962 85.268808 
L 252.95016 85.419243 
L 255.244358 85.704685 
L 257.538556 85.843249 
L 259.832755 86.126641 
L 262.126953 86.305049 
L 264.421151 86.530353 
L 266.715349 87.194951 
L 269.009548 87.287034 
L 271.303746 87.489544 
L 273.597944 87.746414 
L 275.892143 88.290385 
L 278.186341 88.842509 
L 280.480539 89.103641 
L 282.774737 89.320335 
L 285.068936 89.988716 
L 287.363134 90.166745 
L 289.657332 91.348809 
L 291.95153 92.664435 
L 294.245729 93.60456 
L 296.539927 94.756059 
L 298.834125 97.738626 
L 301.128323 101.099023 
L 303.422522 108.932769 
L 305.71672 109.816191 
L 308.010918 111.165579 
L 310.305116 113.72877 
L 312.599315 116.548728 
L 314.893513 119.528041 
L 317.187711 120.911376 
L 319.48191 122.743168 
L 321.776108 128.330581 
L 324.070306 133.719103 
L 326.364504 136.192587 
L 328.658703 141.111736 
L 330.952901 142.951681 
L 333.247099 146.405291 
L 335.541297 149.379372 
L 337.835496 150.873236 
L 340.129694 154.986657 
L 342.423892 160.532152 
L 344.71809 164.809743 
L 347.012289 168.096722 
L 349.306487 178.680694 
L 351.600685 185.813597 
L 353.894884 188.782895 
" clip-path="url(#pcb9288b0ae)" style="fill: none; stroke: #0000ff; stroke-width: 1.5; stroke-linecap: square"/>
   </g>
   <g id="line2d_39">
    <path d="M 103.827273 66.96 
L 106.121471 69.957588 
L 108.415669 71.112998 
L 110.709868 71.725673 
L 113.004066 72.324049 
L 115.298264 72.884411 
L 117.592462 73.753717 
L 119.886661 73.874803 
L 122.180859 74.546732 
L 124.475057 74.884632 
L 126.769255 75.015124 
L 129.063454 75.453466 
L 131.357652 76.003248 
L 133.65185 76.400245 
L 135.946048 76.514051 
L 138.240247 76.986221 
L 140.534445 77.248205 
L 142.828643 77.613705 
L 145.122841 77.726758 
L 147.41704 78.181333 
L 149.711238 78.731061 
L 152.005436 78.920134 
L 154.299635 79.265152 
L 156.593833 79.484296 
L 158.888031 79.748821 
L 161.182229 80.157905 
L 163.476428 80.514532 
L 165.770626 80.739045 
L 168.064824 80.861999 
L 170.359022 81.385535 
L 172.653221 81.657668 
L 174.947419 82.149667 
L 177.241617 82.546593 
L 179.535815 82.841785 
L 181.830014 83.452929 
L 184.124212 83.686263 
L 186.41841 84.479974 
L 188.712608 84.672993 
L 191.006807 85.081478 
L 193.301005 85.224392 
L 195.595203 85.59465 
L 197.889402 86.067312 
L 200.1836 87.044501 
L 202.477798 87.437343 
L 204.771996 88.088073 
L 207.066195 88.949062 
L 209.360393 89.708038 
L 211.654591 91.570694 
L 213.948789 92.571842 
L 216.242988 93.633247 
L 218.537186 94.7583 
L 220.831384 95.988639 
L 223.125582 96.840721 
L 225.419781 98.26009 
L 227.713979 100.155494 
L 230.008177 100.727861 
L 232.302376 102.286572 
L 234.596574 104.536954 
L 236.890772 105.59875 
L 239.18497 106.865617 
L 241.479169 109.310317 
L 243.773367 110.316532 
L 246.067565 115.276695 
L 248.361763 116.022844 
L 250.655962 118.008213 
L 252.95016 119.69079 
L 255.244358 121.258658 
L 257.538556 122.993245 
L 259.832755 124.993547 
L 262.126953 129.312886 
L 264.421151 131.307897 
L 266.715349 133.265336 
L 269.009548 135.816969 
L 271.303746 138.71735 
L 273.597944 141.586956 
L 275.892143 145.396417 
L 278.186341 146.136301 
L 280.480539 151.212217 
L 282.774737 155.483229 
L 285.068936 159.930922 
L 287.363134 162.17513 
L 289.657332 167.219686 
L 291.95153 168.872667 
L 294.245729 173.028818 
L 296.539927 177.73764 
L 298.834125 179.362839 
L 301.128323 183.592848 
L 303.422522 185.130709 
L 305.71672 185.81806 
L 308.010918 191.391457 
L 310.305116 192.956223 
L 312.599315 198.56313 
L 314.893513 201.519862 
L 317.187711 205.279748 
L 319.48191 210.106005 
L 321.776108 216.175306 
L 324.070306 219.028477 
L 326.364504 232.382727 
L 328.658703 235.948483 
L 330.952901 247.477912 
L 333.247099 251.523031 
L 335.541297 259.073931 
L 337.835496 266.678886 
L 340.129694 270.954824 
L 342.423892 285.839748 
L 344.71809 297.417971 
L 347.012289 310.215316 
L 349.306487 312.900642 
L 351.600685 337.304464 
L 353.894884 369.36 
" clip-path="url(#pcb9288b0ae)" style="fill: none; stroke: #00bfbf; stroke-width: 1.5; stroke-linecap: square"/>
   </g>
   <g id="LineCollection_1">
    <path d="M 356.189082 331.887843 
L 356.189082 66.96 
" clip-path="url(#pcb9288b0ae)" style="fill: none; stroke-dasharray: 5.55,2.4; stroke-dashoffset: 0; stroke: #000000; stroke-width: 1.5"/>
   </g>
   <g id="patch_3">
    <path d="M 81 384.48 
L 81 51.84 
" style="fill: none; stroke: #000000; stroke-width: 0.8; stroke-linejoin: miter; stroke-linecap: square"/>
   </g>
   <g id="patch_4">
    <path d="M 583.2 384.48 
L 583.2 51.84 
" style="fill: none; stroke: #000000; stroke-width: 0.8; stroke-linejoin: miter; stroke-linecap: square"/>
   </g>
   <g id="patch_5">
    <path d="M 81 384.48 
L 583.2 384.48 
" style="fill: none; stroke: #000000; stroke-width: 0.8; stroke-linejoin: miter; stroke-linecap: square"/>
   </g>
   <g id="patch_6">
    <path d="M 81 51.84 
L 583.2 51.84 
" style="fill: none; stroke: #000000; stroke-width: 0.8; stroke-linejoin: miter; stroke-linecap: square"/>
   </g>
   <g id="text_15">
    <!-- Singular values for $\Delta x = 70$ -->
    <g transform="translate(224.26 45.84) scale(0.16 -0.16)">
     <defs>
      <path id="DejaVuSans-53" d="M 3425 4513 
L 3425 3897 
Q 3066 4069 2747 4153 
Q 2428 4238 2131 4238 
Q 1616 4238 1336 4038 
Q 1056 3838 1056 3469 
Q 1056 3159 1242 3001 
Q 1428 2844 1947 2747 
L 2328 2669 
Q 3034 2534 3370 2195 
Q 3706 1856 3706 1288 
Q 3706 609 3251 259 
Q 2797 -91 1919 -91 
Q 1588 -91 1214 -16 
Q 841 59 441 206 
L 441 856 
Q 825 641 1194 531 
Q 1563 422 1919 422 
Q 2459 422 2753 634 
Q 3047 847 3047 1241 
Q 3047 1584 2836 1778 
Q 2625 1972 2144 2069 
L 1759 2144 
Q 1053 2284 737 2584 
Q 422 2884 422 3419 
Q 422 4038 858 4394 
Q 1294 4750 2059 4750 
Q 2388 4750 2728 4690 
Q 3069 4631 3425 4513 
z
" transform="scale(0.015625)"/>
      <path id="DejaVuSans-69" d="M 603 3500 
L 1178 3500 
L 1178 0 
L 603 0 
L 603 3500 
z
M 603 4863 
L 1178 4863 
L 1178 4134 
L 603 4134 
L 603 4863 
z
" transform="scale(0.015625)"/>
      <path id="DejaVuSans-6e" d="M 3513 2113 
L 3513 0 
L 2938 0 
L 2938 2094 
Q 2938 2591 2744 2837 
Q 2550 3084 2163 3084 
Q 1697 3084 1428 2787 
Q 1159 2491 1159 1978 
L 1159 0 
L 581 0 
L 581 3500 
L 1159 3500 
L 1159 2956 
Q 1366 3272 1645 3428 
Q 1925 3584 2291 3584 
Q 2894 3584 3203 3211 
Q 3513 2838 3513 2113 
z
" transform="scale(0.015625)"/>
      <path id="DejaVuSans-67" d="M 2906 1791 
Q 2906 2416 2648 2759 
Q 2391 3103 1925 3103 
Q 1463 3103 1205 2759 
Q 947 2416 947 1791 
Q 947 1169 1205 825 
Q 1463 481 1925 481 
Q 2391 481 2648 825 
Q 2906 1169 2906 1791 
z
M 3481 434 
Q 3481 -459 3084 -895 
Q 2688 -1331 1869 -1331 
Q 1566 -1331 1297 -1286 
Q 1028 -1241 775 -1147 
L 775 -588 
Q 1028 -725 1275 -790 
Q 1522 -856 1778 -856 
Q 2344 -856 2625 -561 
Q 2906 -266 2906 331 
L 2906 616 
Q 2728 306 2450 153 
Q 2172 0 1784 0 
Q 1141 0 747 490 
Q 353 981 353 1791 
Q 353 2603 747 3093 
Q 1141 3584 1784 3584 
Q 2172 3584 2450 3431 
Q 2728 3278 2906 2969 
L 2906 3500 
L 3481 3500 
L 3481 434 
z
" transform="scale(0.015625)"/>
      <path id="DejaVuSans-20" transform="scale(0.015625)"/>
      <path id="DejaVuSans-76" d="M 191 3500 
L 800 3500 
L 1894 563 
L 2988 3500 
L 3597 3500 
L 2284 0 
L 1503 0 
L 191 3500 
z
" transform="scale(0.015625)"/>
      <path id="DejaVuSans-66" d="M 2375 4863 
L 2375 4384 
L 1825 4384 
Q 1516 4384 1395 4259 
Q 1275 4134 1275 3809 
L 1275 3500 
L 2222 3500 
L 2222 3053 
L 1275 3053 
L 1275 0 
L 697 0 
L 697 3053 
L 147 3053 
L 147 3500 
L 697 3500 
L 697 3744 
Q 697 4328 969 4595 
Q 1241 4863 1831 4863 
L 2375 4863 
z
" transform="scale(0.015625)"/>
      <path id="DejaVuSans-6f" d="M 1959 3097 
Q 1497 3097 1228 2736 
Q 959 2375 959 1747 
Q 959 1119 1226 758 
Q 1494 397 1959 397 
Q 2419 397 2687 759 
Q 2956 1122 2956 1747 
Q 2956 2369 2687 2733 
Q 2419 3097 1959 3097 
z
M 1959 3584 
Q 2709 3584 3137 3096 
Q 3566 2609 3566 1747 
Q 3566 888 3137 398 
Q 2709 -91 1959 -91 
Q 1206 -91 779 398 
Q 353 888 353 1747 
Q 353 2609 779 3096 
Q 1206 3584 1959 3584 
z
" transform="scale(0.015625)"/>
      <path id="DejaVuSans-394" d="M 2188 4044 
L 906 525 
L 3472 525 
L 2188 4044 
z
M 50 0 
L 1831 4666 
L 2547 4666 
L 4325 0 
L 50 0 
z
" transform="scale(0.015625)"/>
      <path id="DejaVuSans-Oblique-78" d="M 3841 3500 
L 2234 1784 
L 3219 0 
L 2559 0 
L 1819 1388 
L 531 0 
L -166 0 
L 1556 1844 
L 641 3500 
L 1300 3500 
L 1972 2234 
L 3144 3500 
L 3841 3500 
z
" transform="scale(0.015625)"/>
      <path id="DejaVuSans-3d" d="M 678 2906 
L 4684 2906 
L 4684 2381 
L 678 2381 
L 678 2906 
z
M 678 1631 
L 4684 1631 
L 4684 1100 
L 678 1100 
L 678 1631 
z
" transform="scale(0.015625)"/>
     </defs>
     <use xlink:href="#DejaVuSans-53" transform="translate(0 0.015625)"/>
     <use xlink:href="#DejaVuSans-69" transform="translate(63.476562 0.015625)"/>
     <use xlink:href="#DejaVuSans-6e" transform="translate(91.259766 0.015625)"/>
     <use xlink:href="#DejaVuSans-67" transform="translate(154.638672 0.015625)"/>
     <use xlink:href="#DejaVuSans-75" transform="translate(218.115234 0.015625)"/>
     <use xlink:href="#DejaVuSans-6c" transform="translate(281.494141 0.015625)"/>
     <use xlink:href="#DejaVuSans-61" transform="translate(309.277344 0.015625)"/>
     <use xlink:href="#DejaVuSans-72" transform="translate(370.556641 0.015625)"/>
     <use xlink:href="#DejaVuSans-20" transform="translate(411.669922 0.015625)"/>
     <use xlink:href="#DejaVuSans-76" transform="translate(443.457031 0.015625)"/>
     <use xlink:href="#DejaVuSans-61" transform="translate(502.636719 0.015625)"/>
     <use xlink:href="#DejaVuSans-6c" transform="translate(563.916016 0.015625)"/>
     <use xlink:href="#DejaVuSans-75" transform="translate(591.699219 0.015625)"/>
     <use xlink:href="#DejaVuSans-65" transform="translate(655.078125 0.015625)"/>
     <use xlink:href="#DejaVuSans-73" transform="translate(716.601562 0.015625)"/>
     <use xlink:href="#DejaVuSans-20" transform="translate(768.701172 0.015625)"/>
     <use xlink:href="#DejaVuSans-66" transform="translate(800.488281 0.015625)"/>
     <use xlink:href="#DejaVuSans-6f" transform="translate(835.693359 0.015625)"/>
     <use xlink:href="#DejaVuSans-72" transform="translate(896.875 0.015625)"/>
     <use xlink:href="#DejaVuSans-20" transform="translate(937.988281 0.015625)"/>
     <use xlink:href="#DejaVuSans-394" transform="translate(969.775391 0.015625)"/>
     <use xlink:href="#DejaVuSans-Oblique-78" transform="translate(1038.183594 0.015625)"/>
     <use xlink:href="#DejaVuSans-3d" transform="translate(1116.845703 0.015625)"/>
     <use xlink:href="#DejaVuSans-37" transform="translate(1220.117188 0.015625)"/>
     <use xlink:href="#DejaVuSans-30" transform="translate(1283.740234 0.015625)"/>
    </g>
   </g>
  </g>
 </g>
 <defs>
  <clipPath id="pcb9288b0ae">
   <rect x="81" y="51.84" width="502.2" height="332.64"/>
  </clipPath>
 </defs>
</svg>
